<svg width="34" height="34" viewBox="0 0 34 34" fill="none" xmlns="http://www.w3.org/2000/svg">
<path d="M27.5255 13.6775C27.8183 11.8185 28.1112 10.0041 28.3977 8.18967C28.6014 6.91639 28.7924 5.64311 29.0343 4.36984C29.0597 4.28891 29.0565 4.2017 29.0252 4.12286C28.9939 4.04402 28.9364 3.9784 28.8624 3.93697C27.9265 3.21596 26.8178 2.753 25.6471 2.59437C24.4764 2.43574 23.2845 2.58696 22.1904 3.03291C20.9739 3.55287 19.6616 3.81096 18.3388 3.79047C17.0339 3.73855 15.7599 3.37865 14.6208 2.74008L14.4298 2.62545C14.3939 2.62014 14.3575 2.62014 14.3216 2.62545L14.0733 4.14066C13.6913 6.54715 13.3157 8.95362 12.921 11.3601C12.7745 12.2896 12.7554 12.2896 13.5894 12.7353C14.4811 13.2441 15.4783 13.5399 16.5032 13.5995C17.528 13.6592 18.5528 13.4811 19.4975 13.0791C20.7335 12.5437 22.0729 12.2893 23.4191 12.3342C24.7553 12.4013 26.0542 12.7971 27.2008 13.4865L27.5255 13.6775Z" fill="#EEF7E4"/>
<path d="M10.8069 16.3005L11.3481 12.9009C11.6791 10.8 12.0123 8.69905 12.3476 6.59815C12.5895 5.05112 12.8442 3.50414 13.0861 1.95711C13.1272 1.81591 13.1216 1.66513 13.0699 1.52742C13.0183 1.38972 12.9234 1.27245 12.7996 1.1931C12.6984 1.11865 12.5744 1.08175 12.449 1.08872C12.3235 1.09569 12.2044 1.14613 12.112 1.23133C11.9624 1.38086 11.8605 1.57138 11.8192 1.77883C11.641 2.77835 11.4945 3.7906 11.3354 4.79649C10.9831 7.03746 10.6287 9.2742 10.2722 11.5067C10.0472 12.9073 9.82226 14.3079 9.59731 15.7085C9.56548 15.8995 9.59734 16.0013 9.82653 16.0395C10.1449 16.1032 10.4632 16.205 10.8069 16.3005Z" fill="#EEF7E4"/>
<path d="M4.95019 25.2446C5.76674 24.0188 6.2856 22.6192 6.4654 21.1573C6.26801 20.7282 6.22745 20.2433 6.35077 19.7873C6.47408 19.3313 6.75345 18.933 7.14023 18.6618L7.05747 18.4262C6.91136 18.0078 6.9153 17.5516 7.06862 17.1358C7.22193 16.72 7.51508 16.3704 7.89783 16.147C8.44534 15.8669 9.66769 16.0388 10.6481 16.2553L10.8073 16.2998C11.5267 16.4653 12.0806 16.6309 12.0806 16.6309C12.418 16.8027 12.558 16.5417 12.7172 16.408C13.0101 16.1601 13.3614 15.9908 13.7379 15.9162C14.1144 15.8416 14.5036 15.864 14.869 15.9815C15.4547 16.147 16.0468 16.3189 16.6198 16.5163C17.2387 16.6988 17.7956 17.0475 18.23 17.5246C18.6644 18.0016 18.9597 18.5888 19.0836 19.222C19.3764 20.4953 19.6311 21.8449 19.9176 23.1564C19.966 23.3647 20.0547 23.5615 20.1786 23.7358C22.0885 26.3842 23.9984 29.0326 25.9084 31.681C26.2967 32.2221 26.1312 32.5978 25.9084 32.7442C25.4945 33.0116 24.9725 32.5978 24.8451 32.4195C22.8673 29.6989 20.8937 26.9741 18.9244 24.245C18.8007 24.0721 18.716 23.8745 18.6761 23.6657C18.3833 22.3224 18.1095 20.9791 17.8357 19.6358C17.7641 19.1855 17.5638 18.7655 17.2588 18.4266C16.9537 18.0877 16.5571 17.8443 16.1169 17.7259L14.4552 17.2293C14.3081 17.1761 14.1497 17.1621 13.9956 17.1889C13.8415 17.2157 13.6971 17.2823 13.5766 17.3821C13.201 17.675 12.8191 17.9551 12.4562 18.2543C12.2953 18.3657 12.1769 18.5283 12.1202 18.7156C12.0636 18.9028 12.072 19.1038 12.1442 19.2857C12.3861 19.9732 12.6217 20.6672 12.87 21.3484C12.901 21.4553 12.9534 21.5548 13.0241 21.6408C13.0947 21.7268 13.1821 21.7976 13.281 21.8488C13.3798 21.9 13.488 21.9306 13.5991 21.9387C13.7101 21.9468 13.8216 21.9322 13.9268 21.8959C14.1315 21.8248 14.3001 21.6764 14.3966 21.4823C14.493 21.2883 14.5095 21.0642 14.4425 20.8581C14.3597 20.5144 14.2579 20.1706 14.1878 19.8268C14.1641 19.6759 14.1954 19.5215 14.276 19.3917C14.3567 19.262 14.4813 19.1656 14.6271 19.1201C14.7637 19.0644 14.9163 19.0623 15.0544 19.1142C15.1925 19.1662 15.3059 19.2683 15.372 19.4002C15.7031 20.0795 15.8292 20.8405 15.7348 21.5903C15.67 21.8801 15.5451 22.153 15.368 22.3915C15.191 22.6299 14.9658 22.8285 14.7071 22.9743C14.4485 23.1202 14.162 23.2101 13.8664 23.2382C13.5707 23.2662 13.2725 23.2318 12.9909 23.1373L12.8382 23.0864C12.8452 23.5146 12.8003 23.9422 12.7044 24.3597C12.5224 24.7528 12.2937 25.1226 12.0233 25.461C12.2215 25.9262 12.2336 26.4498 12.0571 26.9236C11.8806 27.3975 11.5289 27.7854 11.0747 28.0076C11.5013 28.4626 12.0826 28.7419 12.7044 28.7906C13.6785 28.8798 14.6589 28.9435 15.6266 29.0644C15.7389 29.0836 15.8457 29.1264 15.9401 29.1901C16.0345 29.2538 16.1143 29.3368 16.1741 29.4336C16.6389 30.2549 17.0654 31.0953 17.492 31.942C17.539 32.0128 17.5714 32.0922 17.5873 32.1756C17.6032 32.2591 17.6021 32.3449 17.5843 32.4279C17.5665 32.511 17.5323 32.5896 17.4837 32.6593C17.435 32.7289 17.3729 32.7881 17.301 32.8333C16.8235 33.1071 16.3842 32.5786 16.2633 32.3749C15.9513 31.8274 15.6266 31.2671 15.3911 30.6878C15.3348 30.5515 15.2366 30.4368 15.1106 30.3601C14.9847 30.2834 14.8377 30.2488 14.6908 30.2613C13.9077 30.2167 13.1246 30.153 12.3479 30.0575C11.519 29.9396 10.7518 29.5527 10.1643 28.9562C9.83321 28.606 9.38121 27.9821 8.94193 27.9121L7.78961 27.6001C6.92379 27.3391 5.91153 27.008 5.8797 26.9635C5.58434 26.7872 5.34208 26.5345 5.17848 26.232C5.01488 25.9294 4.93599 25.5883 4.95019 25.2446ZM8.99287 17.1784C8.91371 17.1608 8.83181 17.1596 8.75215 17.1746C8.67249 17.1897 8.5967 17.2208 8.52942 17.2661C8.46214 17.3113 8.40478 17.3697 8.36078 17.4378C8.31678 17.5059 8.28707 17.5823 8.27347 17.6622C8.24028 17.8154 8.26479 17.9755 8.34232 18.1118C8.41986 18.2481 8.54495 18.351 8.69363 18.4007C9.38757 18.6045 10.0942 18.7827 10.7563 18.961C10.8709 18.5535 10.9855 18.1651 11.1128 17.7259C10.4189 17.5476 9.71227 17.3439 8.99287 17.1784ZM11.2338 20.5589C11.2149 20.5186 11.1875 20.4829 11.1535 20.4543C11.1194 20.4257 11.0794 20.405 11.0365 20.3934C10.177 20.1515 9.31754 19.916 8.45808 19.6995C8.37521 19.6668 8.2864 19.6518 8.19738 19.6556C8.10837 19.6594 8.02112 19.6817 7.94131 19.7213C7.86151 19.7609 7.79089 19.8169 7.73405 19.8855C7.67721 19.9541 7.63541 20.0338 7.61134 20.1196C7.58577 20.2082 7.57977 20.3013 7.5937 20.3924C7.60762 20.4835 7.64115 20.5705 7.69201 20.6474C7.74286 20.7243 7.80983 20.7892 7.88824 20.8377C7.96664 20.8862 8.05462 20.917 8.14613 20.9282L11.3739 21.8004C11.4798 21.8089 11.5863 21.8089 11.6922 21.8004C11.5331 21.3802 11.3675 20.9664 11.2338 20.5589ZM11.5394 23.8567C11.5615 23.7756 11.5673 23.6909 11.5566 23.6075C11.5458 23.5242 11.5186 23.4438 11.4766 23.371C11.4345 23.2982 11.3785 23.2344 11.3117 23.1834C11.2449 23.1323 11.1687 23.0951 11.0874 23.0736C10.5654 22.9208 10.0306 22.7935 9.50217 22.6534C8.97376 22.5134 8.32437 22.3287 7.7323 22.176C7.63613 22.15 7.53524 22.147 7.43769 22.1672C7.34013 22.1873 7.24864 22.2301 7.17062 22.292C7.09259 22.3539 7.03022 22.4332 6.98845 22.5236C6.94669 22.6141 6.92673 22.713 6.93017 22.8126C6.9276 22.9387 6.96768 23.0621 7.04394 23.1626C7.1202 23.2631 7.22816 23.3349 7.35033 23.3665C8.50901 23.6848 9.66771 24.0032 10.8264 24.3024C10.9791 24.3274 11.1357 24.296 11.2669 24.214C11.3981 24.132 11.495 24.0049 11.5394 23.8567ZM6.79009 25.913C7.85964 26.2122 8.94193 26.4988 10.0178 26.7853C10.0814 26.7894 10.1452 26.7894 10.2088 26.7853C10.3651 26.7974 10.5203 26.7515 10.6448 26.6564C10.7693 26.5612 10.8544 26.4235 10.8837 26.2696C10.9123 26.1088 10.8781 25.9431 10.788 25.8068C10.698 25.6705 10.559 25.5741 10.3998 25.5374L7.76416 24.8244L7.12753 24.6589C7.04279 24.623 6.95129 24.606 6.85933 24.6089C6.76737 24.6118 6.67712 24.6347 6.59483 24.6758C6.51254 24.7169 6.44014 24.7754 6.38263 24.8472C6.32512 24.919 6.28384 25.0025 6.26167 25.0918C6.23394 25.1807 6.22604 25.2746 6.23855 25.3668C6.25105 25.4591 6.28367 25.5475 6.33406 25.6259C6.38445 25.7042 6.45138 25.7704 6.53017 25.8201C6.60897 25.8697 6.69769 25.9014 6.79009 25.913Z" fill="#EEF7E4"/>
</svg>
