<svg width="34" height="34" viewBox="0 0 34 34" fill="none" xmlns="http://www.w3.org/2000/svg">
<path d="M2.16403 19.3449C2.53868 19.0088 3.02824 18.8297 3.53134 18.8446C4.03443 18.8595 4.51252 19.0674 4.86658 19.4252L8.92789 23.4363H25.4189L29.0139 19.4252C29.3738 19.0744 29.8522 18.8715 30.3546 18.8566C30.8569 18.8418 31.3465 19.016 31.7265 19.3449C31.9271 19.5229 32.0889 19.7403 32.2019 19.9836C32.3149 20.2268 32.3767 20.4908 32.3833 20.7589C32.398 21.0236 32.3569 21.2885 32.2627 21.5364C32.1686 21.7843 32.0235 22.0096 31.8368 22.1979L27.6201 27.0815V29.3479C27.6201 29.9361 27.3867 30.5003 26.9712 30.9167C26.5558 31.3331 25.9921 31.5677 25.4039 31.569H8.72233C8.13411 31.5677 7.57041 31.3331 7.15494 30.9167C6.73947 30.5003 6.50616 29.9361 6.50616 29.3479V26.6102L2.07378 22.228C1.88618 22.035 1.73935 21.8062 1.64203 21.5552C1.54471 21.3043 1.4989 21.0364 1.50732 20.7673C1.51574 20.4983 1.5782 20.2337 1.69103 19.9893C1.80385 19.745 1.96472 19.5258 2.16403 19.3449ZM13.0143 24.4542H8.50172L4.14958 20.1372C3.9709 19.968 3.73628 19.8705 3.49036 19.8631C3.24444 19.8557 3.00436 19.9389 2.81584 20.097C2.71606 20.1845 2.63524 20.2914 2.57833 20.4113C2.52142 20.5312 2.48964 20.6614 2.48493 20.794C2.47959 20.9268 2.50228 21.0594 2.55152 21.1829C2.60076 21.3065 2.67545 21.4182 2.77073 21.511L7.4939 26.1991V29.3479C7.4939 29.6697 7.62174 29.9783 7.84929 30.2058C8.07685 30.4334 8.38547 30.5612 8.70728 30.5612H12.6332V25.6676C12.6318 25.2335 12.765 24.8096 13.0143 24.4542ZM19.1364 24.4542H14.8594C14.538 24.4555 14.2302 24.5838 14.0029 24.811C13.7756 25.0383 13.6474 25.3462 13.6461 25.6676V30.5612H18.7704V25.6676C18.7712 25.2338 18.9041 24.8106 19.1514 24.4542H19.1364ZM31.0998 21.516C31.1956 21.4231 31.271 21.3112 31.3213 21.1876C31.3716 21.0639 31.3956 20.9311 31.3919 20.7977C31.3881 20.6643 31.3566 20.533 31.2994 20.4124C31.2422 20.2918 31.1606 20.1844 31.0596 20.097C30.8791 19.9359 30.6448 19.8482 30.4028 19.8513C30.2809 19.8511 30.1602 19.8749 30.0475 19.9213C29.9347 19.9678 29.8323 20.036 29.746 20.1221L25.8752 24.4542H20.9865C20.6651 24.4555 20.3573 24.5838 20.13 24.811C19.9027 25.0383 19.7745 25.3462 19.7732 25.6676V30.5612H25.4039C25.7257 30.5612 26.0343 30.4334 26.2619 30.2058C26.4894 29.9783 26.6173 29.6697 26.6173 29.3479V26.7055L31.0998 21.516Z" fill="#EBF8FF"/>
<path d="M23.1971 22.7452C22.5901 22.7438 21.9929 22.5925 21.4584 22.3047C20.924 22.017 20.4689 21.6017 20.1336 21.0957C19.7992 21.6025 19.3443 22.0184 18.8096 22.3062C18.2749 22.594 17.6772 22.7447 17.07 22.7447C16.4628 22.7447 15.8651 22.594 15.3305 22.3062C14.7958 22.0184 14.3409 21.6025 14.0065 21.0957C13.5679 21.754 12.9291 22.2538 12.1846 22.521C11.4401 22.7883 10.6293 22.8089 9.87211 22.5798C9.11496 22.3507 8.45163 21.884 7.98018 21.2488C7.50872 20.6136 7.25418 19.8435 7.25418 19.0524C7.25418 18.2614 7.50872 17.4913 7.98018 16.8561C8.45163 16.2209 9.11496 15.7542 9.87211 15.5251C10.6293 15.296 11.4401 15.3166 12.1846 15.5839C12.9291 15.8512 13.5679 16.3509 14.0065 17.0093C14.3425 16.5046 14.7979 16.0907 15.3324 15.8044C15.8668 15.5182 16.4637 15.3683 17.07 15.3683C17.6763 15.3683 18.2732 15.5182 18.8077 15.8044C19.3421 16.0907 19.7976 16.5046 20.1336 17.0093C20.4877 16.4805 20.9728 16.0524 21.5415 15.7667C22.1103 15.4811 22.7433 15.3476 23.379 15.3792C24.0146 15.4109 24.6313 15.6067 25.1688 15.9475C25.7063 16.2882 26.1464 16.7624 26.4463 17.3238C26.7461 17.8852 26.8954 18.5147 26.8797 19.1509C26.864 19.7872 26.6838 20.4085 26.3566 20.9544C26.0295 21.5003 25.5665 21.9522 25.0128 22.2661C24.4591 22.5799 23.8336 22.745 23.1971 22.7452ZM25.8796 19.0449C25.8817 18.3947 25.6475 17.7658 25.2206 17.2753C24.7937 16.7848 24.2031 16.4661 23.5588 16.3784C22.9145 16.2907 22.2603 16.4401 21.7178 16.7987C21.1754 17.1573 20.7816 17.7008 20.6099 18.3279C20.5426 18.561 20.5088 18.8024 20.5096 19.0449C20.5099 19.2923 20.5436 19.5386 20.6099 19.777C20.7819 20.4055 21.1768 20.9499 21.7209 21.3085C22.2649 21.6671 22.9209 21.8154 23.5663 21.7258C24.2117 21.6361 24.8025 21.3146 25.2282 20.8213C25.6539 20.3279 25.8854 19.6965 25.8796 19.0449ZM19.6071 18.1976C19.4042 17.5916 18.9924 17.0775 18.4453 16.7473C17.8982 16.4171 17.2515 16.2922 16.6208 16.395C15.9901 16.4978 15.4165 16.8215 15.0026 17.3084C14.5887 17.7952 14.3614 18.4134 14.3614 19.0524C14.3614 19.6915 14.5887 20.3097 15.0026 20.7965C15.4165 21.2833 15.9901 21.6071 16.6208 21.7099C17.2515 21.8127 17.8982 21.6878 18.4453 21.3576C18.9924 21.0273 19.4042 20.5133 19.6071 19.9073C19.5402 19.6247 19.5065 19.3353 19.5068 19.0449C19.503 18.7543 19.5367 18.4645 19.6071 18.1825V18.1976ZM13.48 18.1976C13.2792 17.59 12.8686 17.0737 12.3217 16.7414C11.7748 16.4091 11.1274 16.2824 10.4956 16.3841C9.86381 16.4858 9.2889 16.8092 8.87391 17.2963C8.45891 17.7834 8.23097 18.4025 8.23097 19.0424C8.23097 19.6823 8.45891 20.3014 8.87391 20.7885C9.2889 21.2756 9.86381 21.599 10.4956 21.7007C11.1274 21.8024 11.7748 21.6757 12.3217 21.3434C12.8686 21.0111 13.2792 20.4949 13.48 19.8873C13.4137 19.608 13.38 19.3219 13.3797 19.0349C13.3784 18.756 13.4121 18.4781 13.48 18.2076V18.1976Z" fill="#EBF8FF"/>
<path d="M19.8087 8.65551C19.7738 8.68962 19.7475 8.73145 19.7318 8.77762C19.7162 8.82378 19.7116 8.873 19.7184 8.92127L20.1596 11.6138C20.1674 11.6683 20.1604 11.7238 20.1392 11.7746C20.1181 11.8254 20.0836 11.8696 20.0395 11.9024C19.9953 11.9353 19.9431 11.9556 19.8884 11.9613C19.8336 11.967 19.7784 11.9578 19.7284 11.9347L17.2215 10.7012C17.1809 10.6813 17.1363 10.671 17.0911 10.671C17.0459 10.671 17.0013 10.6813 16.9607 10.7012L14.4287 11.9347C14.3787 11.9578 14.3234 11.967 14.2687 11.9613C14.214 11.9556 14.1618 11.9353 14.1176 11.9024C14.0735 11.8696 14.039 11.8254 14.0178 11.7746C13.9967 11.7238 13.9896 11.6683 13.9974 11.6138L14.4387 8.92127C14.4455 8.873 14.4409 8.82378 14.4253 8.77762C14.4096 8.73145 14.3832 8.68962 14.3484 8.65551L12.3729 6.73016C12.3361 6.69105 12.3104 6.64277 12.2985 6.59036C12.2866 6.53796 12.289 6.48332 12.3053 6.43214C12.3217 6.38097 12.3515 6.3351 12.3916 6.29933C12.4317 6.26356 12.4806 6.23921 12.5334 6.22876L15.3111 5.77749C15.3592 5.76984 15.4047 5.75081 15.4439 5.72203C15.4832 5.69326 15.515 5.65559 15.5367 5.61205L16.8203 2.96465C16.8449 2.91378 16.8834 2.8709 16.9313 2.84089C16.9792 2.81087 17.0346 2.79492 17.0911 2.79492C17.1476 2.79492 17.203 2.81087 17.2509 2.84089C17.2988 2.8709 17.3372 2.91378 17.3618 2.96465L18.6454 5.61205C18.6671 5.65559 18.699 5.69326 18.7382 5.72203C18.7774 5.75081 18.823 5.76984 18.871 5.77749L21.6488 6.22876C21.7015 6.23921 21.7504 6.26356 21.7905 6.29933C21.8306 6.3351 21.8604 6.38097 21.8768 6.43214C21.8932 6.48332 21.8955 6.53796 21.8837 6.59036C21.8718 6.64277 21.8461 6.69105 21.8092 6.73016L19.8087 8.65551Z" fill="#EBF8FF"/>
<path d="M9.21456 11.2922C9.17828 11.3263 9.15105 11.3689 9.1353 11.4162C9.11955 11.4635 9.11577 11.5139 9.12431 11.563L9.42514 13.2878C9.43544 13.3433 9.42989 13.4007 9.40911 13.4533C9.38832 13.5058 9.35315 13.5514 9.30763 13.5849C9.2621 13.6184 9.20807 13.6384 9.1517 13.6426C9.09534 13.6468 9.03891 13.635 8.98893 13.6087L7.39448 12.7864C7.35197 12.764 7.30466 12.7523 7.25662 12.7523C7.20857 12.7523 7.16123 12.764 7.11872 12.7864L5.52427 13.6087C5.47429 13.635 5.41789 13.6468 5.36153 13.6426C5.30516 13.6384 5.2511 13.6184 5.20557 13.5849C5.16005 13.5514 5.12488 13.5058 5.1041 13.4533C5.08331 13.4007 5.07776 13.3433 5.08806 13.2878L5.38889 11.563C5.39806 11.5143 5.3951 11.4641 5.38023 11.4169C5.36536 11.3696 5.33905 11.3268 5.30366 11.2922L4.03012 10.0788C3.9948 10.0387 3.97056 9.9902 3.95985 9.93789C3.94914 9.88559 3.9523 9.83136 3.96903 9.78066C3.98576 9.72995 4.0155 9.68454 4.05524 9.64888C4.09498 9.61322 4.14334 9.58855 4.19555 9.57739L5.96551 9.32669C6.01357 9.31905 6.05911 9.30008 6.09835 9.2713C6.1376 9.24252 6.16941 9.20479 6.19114 9.16125L6.98835 7.58183C7.01298 7.53097 7.05146 7.48809 7.09935 7.45808C7.14723 7.42806 7.20261 7.41211 7.25913 7.41211C7.31564 7.41211 7.37099 7.42806 7.41887 7.45808C7.46676 7.48809 7.50524 7.53097 7.52987 7.58183L8.32209 9.15623C8.3443 9.2004 8.37688 9.2385 8.41705 9.26732C8.45722 9.29614 8.50376 9.31479 8.55271 9.32167L10.3176 9.57237C10.3699 9.58353 10.4183 9.6082 10.458 9.64386C10.4977 9.67952 10.5274 9.72493 10.5442 9.77564C10.5609 9.82634 10.5641 9.88057 10.5533 9.93287C10.5426 9.98518 10.5184 10.0337 10.4831 10.0738L9.21456 11.2922Z" fill="#EBF8FF"/>
<path d="M28.8322 11.2935C28.7952 11.3271 28.7674 11.3696 28.7516 11.4171C28.7358 11.4645 28.7325 11.5152 28.742 11.5643L29.0428 13.2891C29.0531 13.3447 29.0476 13.402 29.0268 13.4546C29.006 13.5072 28.9708 13.5528 28.9253 13.5863C28.8798 13.6197 28.8257 13.6398 28.7693 13.644C28.713 13.6482 28.6566 13.6364 28.6066 13.61L27.0122 12.7877C26.9696 12.7653 26.9223 12.7536 26.8743 12.7536C26.8262 12.7536 26.7789 12.7653 26.7364 12.7877L25.142 13.61C25.092 13.6364 25.0356 13.6482 24.9792 13.644C24.9228 13.6398 24.8688 13.6197 24.8233 13.5863C24.7777 13.5528 24.7426 13.5072 24.7218 13.4546C24.701 13.402 24.6954 13.3447 24.7057 13.2891L25.0066 11.5643C25.0161 11.5152 25.0128 11.4645 24.997 11.4171C24.9811 11.3696 24.9534 11.3271 24.9163 11.2935L23.6478 10.0801C23.6124 10.0401 23.5882 9.99155 23.5775 9.93924C23.5668 9.88693 23.57 9.83271 23.5867 9.782C23.6034 9.7313 23.6332 9.68588 23.6729 9.65023C23.7127 9.61457 23.761 9.5899 23.8132 9.57874L25.5832 9.32804C25.6312 9.3204 25.6768 9.30142 25.716 9.27265C25.7553 9.24387 25.7871 9.20614 25.8088 9.1626L26.606 7.58318C26.6298 7.53207 26.6677 7.48882 26.7152 7.4585C26.7627 7.42819 26.8179 7.41211 26.8743 7.41211C26.9307 7.41211 26.9858 7.42819 27.0334 7.4585C27.0809 7.48882 27.1188 7.53207 27.1425 7.58318L27.9398 9.1626C27.9615 9.20614 27.9933 9.24387 28.0325 9.27265C28.0718 9.30142 28.1173 9.3204 28.1654 9.32804L29.9353 9.57874C29.9875 9.5899 30.0359 9.61457 30.0756 9.65023C30.1154 9.68588 30.1451 9.7313 30.1618 9.782C30.1786 9.83271 30.1817 9.88693 30.171 9.93924C30.1603 9.99155 30.1361 10.0401 30.1008 10.0801L28.8322 11.2935Z" fill="#EBF8FF"/>
</svg>
