<svg width="35" height="36" viewBox="0 0 35 36" fill="none" xmlns="http://www.w3.org/2000/svg">
<path d="M8.22408 17.2876C8.35139 16.6902 8.5421 16.1081 8.79303 15.5512C9.24989 14.6219 9.84898 13.7696 10.5687 13.0251C10.6441 12.9487 10.7426 12.8991 10.849 12.884C10.9553 12.869 11.0636 12.8892 11.1573 12.9417C11.2471 12.9928 11.3194 13.0697 11.3649 13.1624C11.4103 13.2551 11.4269 13.3593 11.4124 13.4616C11.3868 13.6732 11.3737 13.8861 11.3731 14.0993C11.5345 13.0849 11.3423 12.0458 10.8287 11.1562C9.09225 7.91886 11.0592 5.21618 11.7606 4.74529C11.8412 4.69151 11.936 4.66278 12.0329 4.66278C12.1298 4.66278 12.2245 4.69151 12.3051 4.74529C12.3875 4.79535 12.4532 4.86852 12.4942 4.95576C12.5352 5.04299 12.5496 5.14043 12.5356 5.2358C12.5356 5.46143 12.413 7.19782 13.1292 8.34561C12.982 6.32471 13.3156 2.72437 17.0925 0.987968C17.1873 0.947865 17.2923 0.938614 17.3926 0.961503C17.493 0.984391 17.5836 1.03826 17.6517 1.11551C17.7235 1.19196 17.7689 1.2894 17.7813 1.39357C17.7937 1.49775 17.7723 1.60314 17.7203 1.69427C17.5585 1.99839 16.1998 4.70114 19.084 7.13407C20.2722 8.10471 21.3145 9.24126 22.1791 10.5088C22.1413 10.0947 22.0387 9.68917 21.8749 9.30699C21.8427 9.25113 21.8217 9.18948 21.8133 9.12551C21.8049 9.06154 21.8092 8.99651 21.8259 8.9342V8.89498L21.8602 8.84103C21.8734 8.81301 21.8898 8.78664 21.9093 8.76253C21.9218 8.73718 21.9398 8.71487 21.9618 8.69709C21.9838 8.67931 22.0094 8.6665 22.0368 8.65955C22.1114 8.6165 22.1959 8.5938 22.2821 8.5938C22.3682 8.5938 22.4527 8.6165 22.5273 8.65955C22.748 8.79198 27.9524 12.0048 27.2313 19.9413C27.2282 19.9868 27.2094 20.0298 27.1781 20.0629C27.1468 20.096 27.1049 20.1172 27.0596 20.1228C27.0151 20.1293 26.9697 20.1213 26.9299 20.1001C26.8902 20.0789 26.8583 20.0456 26.8389 20.005C26.7036 19.6912 26.5394 19.3907 26.3484 19.1074C26.3224 19.0739 26.3101 19.0318 26.3141 18.9896C26.3141 18.558 26.3141 18.0479 26.2895 17.5476C26.2895 17.2925 26.2454 17.0571 26.2111 16.7922C26.1767 16.5273 26.1375 16.2722 26.0933 16.0319C26.0516 15.7885 25.9959 15.5478 25.9266 15.3108C25.8132 14.859 25.6706 14.415 25.4998 13.9816C25.4213 13.7805 25.333 13.594 25.2447 13.4076C25.0816 13.0474 24.8948 12.6984 24.6856 12.3629C24.5041 12.0576 24.3008 11.7658 24.0773 11.4898C23.9858 11.3592 23.8859 11.2346 23.7781 11.117C23.6927 11.0012 23.5957 10.8944 23.4887 10.7982C23.4152 10.7099 23.3269 10.6265 23.2435 10.5382L23.1454 10.4352C23.2213 11.1395 23.1732 11.8517 23.0031 12.5394C22.9744 12.6464 22.9102 12.7406 22.8212 12.8065C22.7321 12.8724 22.6234 12.9063 22.5126 12.9025C22.3999 12.9055 22.2896 12.8695 22.2003 12.8007C22.1109 12.7319 22.048 12.6345 22.0221 12.5248C21.9142 12.1814 21.2422 10.342 18.3874 7.92869C16.1556 6.03042 16.0771 3.92121 16.3469 2.57721C13.0899 4.966 14.1984 9.36096 14.2475 9.56207C14.2644 9.65214 14.2569 9.74511 14.2259 9.83133C14.1948 9.91756 14.1413 9.99392 14.0709 10.0526C13.9977 10.1106 13.9094 10.1465 13.8164 10.1561C13.7234 10.1657 13.6296 10.1485 13.5461 10.1065C12.1187 9.41981 11.6576 7.85509 11.5203 6.67296C11.2181 7.31539 11.0729 8.02045 11.0968 8.73002C11.1207 9.43959 11.3129 10.1334 11.6577 10.754C12.1564 11.61 12.4068 12.5879 12.3808 13.5782C12.3548 14.5685 12.0534 15.5319 11.5105 16.3605L11.329 16.2526L11.4859 16.39C11.4285 16.4617 11.352 16.5157 11.2653 16.5461C11.1786 16.5764 11.0851 16.5818 10.9954 16.5617C10.902 16.5484 10.8144 16.5086 10.743 16.4468C10.6717 16.385 10.6197 16.304 10.5932 16.2134C10.4651 15.7663 10.3797 15.3081 10.3382 14.8449C10.0638 15.2187 9.82564 15.6178 9.62693 16.0368C9.41054 16.5335 9.24616 17.0513 9.13643 17.5819C9.04021 18.0403 8.96977 18.5038 8.92548 18.9701C8.92149 19.0049 8.90978 19.0384 8.89117 19.0681C8.64849 19.4148 8.45377 19.7926 8.31234 20.1914C8.29803 20.2319 8.27142 20.2669 8.23624 20.2915C8.20106 20.3162 8.15907 20.3291 8.11613 20.3287H8.08673C8.03936 20.321 7.99603 20.2973 7.96392 20.2617C7.93182 20.226 7.91287 20.1805 7.91015 20.1326C7.88587 19.1744 7.99148 18.2174 8.22408 17.2876Z" fill="#FFFCF5"/>
<path d="M9.92082 18.5153C10.8536 17.5826 12.1187 17.0586 13.4378 17.0586C14.7569 17.0586 16.022 17.5826 16.9547 18.5153L17.4109 18.9715C17.4429 19.0042 17.481 19.0301 17.5231 19.0478C17.5652 19.0655 17.6105 19.0746 17.6562 19.0746C17.7018 19.0746 17.747 19.0655 17.7892 19.0478C17.8313 19.0301 17.8695 19.0042 17.9014 18.9715L18.3478 18.5153C19.2837 17.5829 20.551 17.0593 21.8721 17.0593C23.1932 17.0593 24.4605 17.5829 25.3964 18.5153C25.8471 18.9696 26.2097 19.5034 26.4657 20.0898C26.6345 20.5134 26.7483 20.9569 26.8042 21.4094C26.8363 21.617 26.851 21.8271 26.8483 22.0372C26.8468 22.6907 26.716 23.3375 26.4635 23.9402C26.2109 24.543 25.8416 25.0898 25.3768 25.5492L17.6463 33.2747L9.92082 25.5492C9.45381 25.0915 9.08305 24.545 8.83034 23.9418C8.57763 23.3387 8.44808 22.6912 8.44929 22.0372C8.44926 21.4291 8.55895 20.8259 8.77304 20.2567C9.02515 19.6 9.41674 19.0059 9.92082 18.5153Z" stroke="#FFFCF5" stroke-width="3"/>
</svg>
