<svg width="35" height="34" viewBox="0 0 35 34" fill="none" xmlns="http://www.w3.org/2000/svg">
<path d="M5.68817 15.9219C6.10283 15.9219 6.51749 15.9219 6.96405 15.9219C7.02813 15.9328 7.09383 15.9297 7.15655 15.9126C7.21928 15.8955 7.27752 15.865 7.32721 15.823C7.3769 15.7811 7.41686 15.7289 7.44426 15.6699C7.47165 15.6109 7.48584 15.5467 7.48584 15.4817C7.48584 15.4167 7.47165 15.3525 7.44426 15.2935C7.41686 15.2346 7.3769 15.1823 7.32721 15.1404C7.27752 15.0985 7.21928 15.0679 7.15655 15.0508C7.09383 15.0338 7.02813 15.0306 6.96405 15.0415C6.1411 15.0415 5.31181 15.0415 4.48249 15.0415C4.41887 15.0343 4.3544 15.0407 4.29341 15.0602C4.23242 15.0797 4.17629 15.1119 4.12867 15.1547C4.08105 15.1975 4.04304 15.2499 4.01715 15.3085C3.99127 15.3671 3.97808 15.4304 3.97849 15.4945C3.97849 15.7496 4.17628 15.9155 4.48249 15.9219C4.85887 15.9283 5.26075 15.9219 5.68817 15.9219Z" fill="#FFFCF5"/>
<path d="M10.1602 8.4326C10.2936 8.34102 10.4138 8.23155 10.5175 8.10725C10.5661 8.02557 10.5825 7.92873 10.5637 7.83557C10.5448 7.74242 10.492 7.65961 10.4154 7.60327L9.13952 6.32739C8.96728 6.15515 8.79503 5.97653 8.61641 5.81066C8.57529 5.76743 8.52581 5.733 8.47098 5.70947C8.41614 5.68595 8.3571 5.67383 8.29744 5.67383C8.23777 5.67383 8.17873 5.68595 8.12389 5.70947C8.06906 5.733 8.01958 5.76743 7.97847 5.81066C7.93259 5.85019 7.89576 5.89915 7.87053 5.95419C7.8453 6.00924 7.83226 6.06908 7.83226 6.12963C7.83226 6.19019 7.8453 6.25003 7.87053 6.30507C7.89576 6.36012 7.93259 6.40908 7.97847 6.4486C8.58664 7.06528 9.19906 7.67771 9.81574 8.28588C9.92498 8.34698 10.0405 8.39617 10.1602 8.4326Z" fill="#FFFCF5"/>
<path d="M15.6912 16.4713C15.6874 16.8657 15.8009 17.2524 16.0173 17.5822C16.2337 17.912 16.5432 18.1701 16.9065 18.3237C17.2699 18.4773 17.6707 18.5195 18.058 18.4448C18.4454 18.3702 18.8018 18.1822 19.0821 17.9046C19.3624 17.627 19.5538 17.2724 19.6322 16.8858C19.7106 16.4992 19.6723 16.098 19.5222 15.7332C19.3722 15.3684 19.1171 15.0564 18.7894 14.8368C18.4617 14.6173 18.076 14.5 17.6816 14.5C17.1565 14.4983 16.6522 14.7048 16.2791 15.0743C15.906 15.4438 15.6946 15.9462 15.6912 16.4713Z" fill="#FFFCF5"/>
<path d="M11.5889 15.922C11.7676 15.7494 11.9669 15.5994 12.1822 15.4754L12.8967 15.1947C12.8967 15.1947 13.2858 14.8311 13.3177 14.678C13.3837 14.4957 13.4203 14.304 13.4262 14.1102C13.4262 13.9061 13.0115 13.4723 12.9796 13.0831C12.9408 12.7191 13.0072 12.3516 13.171 12.0241C13.2858 11.9157 13.4581 11.584 13.8472 11.5584C14.2364 11.5329 14.7978 12.0943 14.7978 12.0943L15.391 12.3367C15.5303 12.3401 15.6694 12.3272 15.8057 12.2985L16.2459 11.8647C16.3748 11.6423 16.4899 11.4122 16.5904 11.1757C16.621 11.048 16.6593 10.9223 16.7052 10.7993L17.1135 10.4102H18.6573V11.3352L19.1357 12.0241H20.182L20.9602 11.8328L21.4579 11.7435L22.2106 12.5281L22.1532 13.6126L21.7322 14.2506L22.3701 15.1692L23.0527 15.6157L23.748 15.8454L23.6524 16.8661L22.6955 17.6508L21.949 18.3908L21.7959 19.3605L22.2553 19.9984L21.3111 21.2424L20.5711 20.8851L19.678 20.8532L18.9954 21.2424L18.5871 22.2057C18.4548 22.3034 18.3139 22.3888 18.1661 22.4609H17.2347C17.2347 22.4609 16.903 22.5374 16.8711 22.3205C16.8392 22.1036 16.7307 21.4083 16.7307 21.4083L16.1948 20.9107L15.1805 20.7958L14.5426 21C14.5426 21 14.096 21.102 14.0194 21.102C13.8334 21.0174 13.6561 20.9149 13.49 20.7958C13.3202 20.6698 13.1582 20.5334 13.0051 20.3876L13.0498 19.6348L13.4581 18.7799L12.8903 17.7784L12.3098 17.5615C12.0647 17.507 11.827 17.4235 11.6017 17.3127C11.5461 17.1032 11.5056 16.89 11.4805 16.6747C11.4884 16.4206 11.5248 16.1681 11.5889 15.922ZM14.7786 16.4897C14.7774 17.0617 14.9462 17.621 15.2638 18.0967C15.5813 18.5724 16.0331 18.9429 16.5617 19.1612C17.0904 19.3795 17.6719 19.4356 18.2326 19.3224C18.7932 19.2093 19.3075 18.932 19.7101 18.5258C20.1127 18.1196 20.3854 17.6028 20.4936 17.0412C20.6017 16.4796 20.5404 15.8985 20.3174 15.3718C20.0945 14.8452 19.72 14.3967 19.2415 14.0834C18.763 13.7702 18.2021 13.6063 17.6302 13.6126C16.8754 13.626 16.156 13.9348 15.6264 14.4727C15.0968 15.0107 14.7993 15.7348 14.7978 16.4897H14.7786Z" fill="#FFFCF5"/>
<path d="M8.35503 14.0222C8.6 12.7363 9.10914 11.5153 9.85024 10.4363C10.5913 9.35737 11.5483 8.44393 12.6605 7.7538C13.7728 7.06366 15.0162 6.61184 16.312 6.42692C17.6078 6.24199 18.928 6.32799 20.1889 6.67946C21.0929 6.93024 21.9534 7.31746 22.7406 7.82776C22.7941 7.8554 22.8413 7.89372 22.8794 7.94034C22.9175 7.98697 22.9455 8.04091 22.9619 8.09883C22.9783 8.15674 22.9827 8.2174 22.9748 8.27706C22.9668 8.33672 22.9466 8.39412 22.9156 8.44569C22.8846 8.49727 22.8433 8.54194 22.7943 8.57693C22.7453 8.61192 22.6897 8.63649 22.6308 8.64913C22.572 8.66177 22.5112 8.66219 22.4521 8.6504C22.3931 8.6386 22.3371 8.61481 22.2877 8.58052C22.2516 8.56522 22.2174 8.54596 22.1856 8.52311C21.0986 7.84643 19.8738 7.42181 18.6013 7.28041C17.3287 7.13902 16.0406 7.28444 14.8315 7.70601C13.6225 8.12758 12.5232 8.81459 11.6145 9.71659C10.7057 10.6186 10.0105 11.7127 9.5799 12.9185C8.43161 16.1082 9.06314 19.0172 11.264 21.5818C11.594 21.9628 11.964 22.3071 12.3677 22.6088C12.813 22.8815 13.1955 23.2452 13.4902 23.6762C13.7848 24.1072 13.985 24.5957 14.0774 25.1096C14.5558 25.1096 15.0215 25.1096 15.4872 25.1096C15.8317 25.1096 16.0358 25.2691 16.0486 25.5434C16.0614 25.8177 15.8381 25.9899 15.5 25.9899H14.1093C14.1093 26.7937 14.1093 27.5593 14.1093 28.3248C14.1176 28.5843 14.227 28.8302 14.4141 29.0102C14.6012 29.1902 14.8512 29.2899 15.1108 29.2881C16.812 29.2881 18.5132 29.2881 20.2144 29.2881C20.4565 29.296 20.6927 29.2125 20.8759 29.054C21.0592 28.8956 21.176 28.674 21.2032 28.4332C21.2414 27.6294 21.2032 26.8193 21.2032 25.9899H17.4266C17.365 25.9982 17.3023 25.9931 17.2429 25.975C17.1834 25.9569 17.1286 25.9262 17.082 25.8851C17.0354 25.844 16.9982 25.7933 16.9729 25.7366C16.9476 25.6798 16.9348 25.6183 16.9353 25.5561C16.9353 25.2946 17.114 25.1223 17.4266 25.1096C17.4945 25.1032 17.5628 25.1032 17.6307 25.1096H21.2478C21.3421 24.611 21.5359 24.1366 21.8176 23.7146C22.0993 23.2927 22.4631 22.9318 22.8873 22.6535C24.1896 21.6889 25.1841 20.3673 25.7502 18.8489C26.3164 17.3305 26.4299 15.6804 26.077 14.0987C25.7648 12.4275 24.9319 10.8979 23.6975 9.72882C23.6426 9.68973 23.5967 9.63933 23.5629 9.58101C23.529 9.5227 23.5081 9.45781 23.5014 9.39072C23.4948 9.32363 23.5026 9.25589 23.5243 9.19207C23.546 9.12824 23.5811 9.06981 23.6273 9.0207C23.6743 8.97627 23.7302 8.94225 23.7912 8.92088C23.8522 8.89951 23.9171 8.89126 23.9815 8.89668C24.0459 8.9021 24.1085 8.92106 24.1651 8.95233C24.2217 8.9836 24.271 9.02646 24.3099 9.07812C25.6329 10.379 26.5454 12.0394 26.9343 13.8536C27.3232 15.6678 27.1715 17.5563 26.4981 19.2852C25.8153 20.9984 24.6579 22.4812 23.1617 23.5594C22.8159 23.7919 22.5357 24.1094 22.3481 24.4814C22.1604 24.8535 22.0715 25.2675 22.0899 25.6837V28.2036C22.1092 28.6257 21.9883 29.0424 21.7459 29.3886C21.5036 29.7348 21.1535 29.9911 20.7503 30.1174C20.6315 30.1693 20.5314 30.256 20.4632 30.3662C20.1973 30.7281 19.912 31.0752 19.6083 31.406C19.1626 31.7716 18.6275 32.0116 18.0581 32.1014H17.2288C17.2288 32.1014 17.1842 32.0631 17.1586 32.0631C16.6478 31.9875 16.1639 31.7857 15.7507 31.4761C15.3375 31.1664 15.0079 30.7587 14.7919 30.2897C14.7446 30.2063 14.6668 30.1446 14.575 30.1174C14.1591 29.994 13.7976 29.733 13.5496 29.3771C13.3015 29.0213 13.1817 28.5918 13.2098 28.1589V25.5625C13.2092 25.2103 13.1292 24.8627 12.9757 24.5457C12.8221 24.2287 12.5991 23.9504 12.323 23.7316C12.1508 23.5913 11.9658 23.4701 11.8063 23.3297C8.90368 20.8736 7.67243 17.7669 8.35503 14.0222ZM17.6945 31.1892C18.0619 31.1924 18.4242 31.1036 18.7485 30.9309C19.0727 30.7582 19.3486 30.507 19.5509 30.2004H15.8062C16.0144 30.5087 16.296 30.7605 16.6256 30.9331C16.9552 31.1057 17.3225 31.1937 17.6945 31.1892Z" fill="#FFFCF5"/>
<path d="M18.0645 31.8712H17.3181C17.2803 31.8462 17.2359 31.8328 17.1905 31.833C16.718 31.7587 16.2713 31.5682 15.8905 31.2787C15.5097 30.9892 15.2068 30.6098 15.0088 30.1743C14.9413 30.047 14.8269 29.9509 14.6898 29.9064C14.3125 29.7978 13.9838 29.5632 13.7586 29.2416C13.5334 28.92 13.4252 28.531 13.4522 28.1393V25.5429C13.4512 25.1601 13.3641 24.7825 13.1973 24.4379C13.0306 24.0934 12.7885 23.7908 12.4889 23.5525L12.2656 23.3803L11.9786 23.1506C9.05041 20.7264 7.90209 17.6707 8.56555 14.0599C8.79085 12.8112 9.27577 11.6237 9.98896 10.5743C10.7022 9.52483 11.6277 8.63678 12.7058 7.9676C13.8021 7.28531 15.0274 6.83631 16.305 6.64862C17.5826 6.46093 18.8852 6.53858 20.1314 6.87672C21.0211 7.12196 21.8686 7.50051 22.6449 7.99949C22.8937 8.15898 22.8044 8.30571 22.7725 8.35675C22.6768 8.51623 22.5046 8.44606 22.4089 8.39502H22.3706L22.3196 8.36312C20.5512 7.23697 18.4304 6.80098 16.3612 7.13828C14.776 7.3365 13.2798 7.98158 12.0474 8.99821C10.815 10.0148 9.89723 11.3611 9.40125 12.8797C8.2402 16.0695 8.82073 19.0678 11.1237 21.7471C11.4634 22.1418 11.8464 22.4971 12.2656 22.8061C12.6896 23.0614 13.0537 23.4048 13.3333 23.8132C13.6129 24.2215 13.8014 24.6853 13.886 25.1729L13.9179 25.3515H15.4681C15.8126 25.3515 15.8189 25.5237 15.8253 25.5811C15.8253 25.7661 15.6403 25.8108 15.4872 25.8108H13.886V26.8251C13.886 27.3419 13.886 27.8522 13.886 28.3562C13.8975 28.6704 14.0301 28.9681 14.256 29.1868C14.4819 29.4056 14.7836 29.5286 15.0981 29.53C16.7886 29.53 18.4983 29.53 20.2016 29.53C20.4974 29.538 20.7852 29.434 21.0076 29.2388C21.23 29.0437 21.3705 28.7717 21.4009 28.4774C21.4009 27.8969 21.4009 27.3036 21.4009 26.7294C21.4009 26.4934 21.4009 26.2574 21.4009 26.0213V25.8108H17.4138C17.1714 25.8108 17.1331 25.6768 17.1331 25.5748C17.1331 25.4727 17.2288 25.3579 17.4202 25.3515H21.4201V25.1729C21.5128 24.7004 21.6988 24.2511 21.9671 23.8513C22.2355 23.4515 22.5809 23.1092 22.983 22.8444C24.3346 21.8647 25.37 20.5111 25.9617 18.9502C26.5535 17.3893 26.6756 15.6894 26.3131 14.0599C25.9936 12.3511 25.1404 10.7876 23.8761 9.59434C23.8046 9.53162 23.7572 9.44588 23.7421 9.35193C23.7391 9.32027 23.7432 9.28832 23.7543 9.25848C23.7653 9.22865 23.783 9.20171 23.806 9.17969C23.8442 9.17969 23.9718 9.02658 24.2015 9.24348C25.4858 10.5182 26.3699 12.1403 26.745 13.9105C27.1201 15.6808 26.97 17.522 26.3131 19.2081C25.6473 20.8834 24.5162 22.3333 23.0532 23.3866C22.679 23.6392 22.3757 23.9836 22.1724 24.3868C21.9692 24.7899 21.8727 25.2385 21.8921 25.6896V28.2031C21.9035 28.5779 21.7917 28.9461 21.574 29.2514C21.3563 29.5567 21.0445 29.7823 20.6864 29.8936C20.5319 29.96 20.4009 30.0711 20.3101 30.2126C20.2144 30.3274 20.1187 30.455 20.023 30.5826C19.8567 30.809 19.6733 31.0222 19.4744 31.2205C19.0697 31.5575 18.5834 31.7819 18.0645 31.8712ZM17.6945 31.3992C18.0941 31.399 18.4876 31.3007 18.8403 31.1127C19.1929 30.9247 19.4939 30.6528 19.7167 30.3211L19.9592 29.9893H15.3788L15.6339 30.3274C15.8635 30.661 16.1714 30.9331 16.5307 31.12C16.8899 31.3068 17.2896 31.4027 17.6945 31.3992ZM19.098 30.4104C18.7246 30.78 18.2199 30.9865 17.6945 30.9845C17.1611 30.9891 16.6475 30.7827 16.2655 30.4104H19.098Z" fill="#FFFCF5"/>
<path d="M11.6404 15.1382L12.6292 14.9787C12.6692 14.9703 12.707 14.9534 12.7401 14.9292C12.7731 14.905 12.8005 14.874 12.8205 14.8383C13.1842 14.1238 13.1778 14.1238 12.6866 13.4604C12.6037 13.3456 12.5143 13.2435 12.4378 13.1223C12.3894 13.0293 12.3468 12.9334 12.3102 12.8352C12.3551 12.72 12.4175 12.6124 12.4952 12.5162C12.9035 12.0952 13.3118 11.6869 13.7328 11.2786C13.7714 11.2331 13.8186 11.1958 13.8717 11.1689C13.9249 11.142 13.9829 11.1259 14.0424 11.1218C14.1018 11.1176 14.1615 11.1254 14.2179 11.1447C14.2743 11.1639 14.3263 11.1943 14.3708 11.234C14.6199 11.4437 14.882 11.6376 15.1554 11.8145C15.2505 11.8611 15.359 11.8724 15.4616 11.8464C15.5896 11.8377 15.7143 11.802 15.8275 11.7419C15.9408 11.6817 16.0401 11.5983 16.1189 11.4972C16.1978 11.3961 16.2544 11.2795 16.2851 11.155C16.3159 11.0304 16.32 10.9009 16.2973 10.7746C16.3029 10.6559 16.3222 10.5381 16.3548 10.4238C16.3563 10.3634 16.3701 10.304 16.3953 10.2492C16.4205 10.1943 16.4565 10.1451 16.5012 10.1046C16.5459 10.064 16.5984 10.033 16.6555 10.0133C16.7125 9.99357 16.773 9.98565 16.8332 9.98998C17.4137 9.98998 17.9943 9.98998 18.5748 9.98998C18.6345 9.98476 18.6946 9.9916 18.7516 10.0101C18.8086 10.0286 18.8612 10.0584 18.9065 10.0977C18.9517 10.137 18.9886 10.1849 19.0149 10.2388C19.0412 10.2926 19.0564 10.3512 19.0596 10.411C19.0922 10.5252 19.1094 10.6432 19.1107 10.7619C19.088 10.8883 19.0919 11.018 19.1222 11.1429C19.1524 11.2677 19.2084 11.3848 19.2864 11.4868C19.3644 11.5889 19.4628 11.6735 19.5753 11.7354C19.6879 11.7973 19.812 11.8351 19.94 11.8464C20.0394 11.8795 20.1468 11.8795 20.2462 11.8464C20.5205 11.6678 20.782 11.4636 21.0308 11.2659C21.1214 11.1874 21.2395 11.148 21.359 11.1564C21.4786 11.1647 21.59 11.2202 21.6688 11.3105C21.9622 11.6103 22.2621 11.9038 22.5555 12.1909C23.1935 12.8288 23.1935 12.8288 22.6448 13.5433C22.3514 13.9069 22.1536 14.2387 22.4854 14.6725C22.4994 14.6973 22.5122 14.7229 22.5236 14.749C22.5236 14.9595 22.6704 15.017 22.8618 15.0361C23.1616 15.068 23.4678 15.119 23.7612 15.1637C23.8214 15.166 23.8804 15.1806 23.9347 15.2066C23.9889 15.2326 24.0373 15.2695 24.0767 15.3149C24.1162 15.3604 24.1459 15.4134 24.1641 15.4708C24.1822 15.5282 24.1884 15.5886 24.1823 15.6485V17.371C24.1875 17.431 24.1807 17.4914 24.1623 17.5488C24.1439 17.6062 24.1142 17.6593 24.075 17.705C24.0357 17.7508 23.9878 17.7882 23.9339 17.8152C23.8801 17.8422 23.8214 17.8582 23.7612 17.8622C23.6557 17.8797 23.5492 17.8904 23.4423 17.8941C22.8873 17.8941 22.428 18.0536 22.3386 18.7043C22.3386 18.8191 22.3386 18.9594 22.3897 19.036C22.5555 19.3103 22.766 19.5463 22.9447 19.8015C22.9911 19.8475 23.0268 19.9031 23.0494 19.9643C23.072 20.0256 23.0809 20.0911 23.0754 20.1562C23.0699 20.2213 23.0503 20.2844 23.0177 20.3411C22.9852 20.3977 22.9407 20.4465 22.8873 20.4841L21.6943 21.6771C21.6155 21.7674 21.5042 21.8228 21.3846 21.8312C21.265 21.8396 21.147 21.8002 21.0564 21.7217C20.8076 21.5431 20.5588 21.3581 20.3036 21.1539C20.1824 21.0519 20.0803 21.0838 19.9336 21.1539C19.8082 21.1701 19.6874 21.2116 19.5786 21.2759C19.4697 21.3402 19.3751 21.426 19.3005 21.5281C19.2259 21.6301 19.1729 21.7463 19.1446 21.8695C19.1164 21.9928 19.1135 22.1204 19.1362 22.2448C19.1332 22.3467 19.1161 22.4476 19.0851 22.5447C19.0405 22.87 18.9065 22.9976 18.562 23.0104H17.2861C16.4377 23.0104 16.3867 23.0104 16.3229 22.1428C16.2782 21.6771 16.1953 21.2879 15.6467 21.2177C15.628 21.2241 15.6078 21.2241 15.5892 21.2177C15.3978 21.071 15.2383 21.1284 15.0661 21.2752C14.8939 21.4219 14.6387 21.6069 14.4282 21.7727C14.3385 21.8512 14.2218 21.8918 14.1027 21.8858C13.9837 21.8799 13.8716 21.8279 13.7902 21.7408L12.5654 20.4969C12.5152 20.4619 12.4734 20.4162 12.443 20.3631C12.4126 20.31 12.3943 20.2509 12.3894 20.1899C12.3845 20.129 12.3932 20.0677 12.4148 20.0104C12.4364 19.9532 12.4704 19.9015 12.5143 19.8589C12.5757 19.7611 12.6462 19.6692 12.7249 19.5846C12.8321 19.5084 12.9226 19.4111 12.9907 19.2986C13.0589 19.1862 13.1034 19.0609 13.1213 18.9306C13.1392 18.8003 13.1303 18.6678 13.095 18.5411C13.0597 18.4143 12.9989 18.2962 12.9162 18.1939C12.8588 18.1301 12.7759 18.0344 12.6866 18.028C12.3676 17.9579 12.0487 17.926 11.7297 17.8685C11.4107 17.8111 11.2767 17.6708 11.2767 17.3518C11.2767 16.7968 11.2767 16.229 11.2767 15.6677C11.2648 15.6089 11.2648 15.5484 11.2767 15.4896C11.2886 15.4309 11.3123 15.3752 11.3462 15.3258C11.3801 15.2763 11.4237 15.2343 11.4742 15.202C11.5248 15.1698 11.5813 15.1481 11.6404 15.1382ZM13.5542 17.5049C13.7392 17.8813 13.8732 18.2768 14.0454 18.666C14.0963 18.757 14.1181 18.8615 14.1078 18.9652C14.0976 19.069 14.0557 19.1672 13.988 19.2465C13.7838 19.5081 13.5925 19.7824 13.35 20.0567L14.122 20.7712C14.3644 20.5989 14.6259 20.4076 14.8875 20.2034C14.9749 20.1284 15.0842 20.0835 15.1991 20.0755C15.314 20.0674 15.4284 20.0966 15.5254 20.1588C15.8592 20.329 16.2071 20.4699 16.5652 20.5798C16.6843 20.6085 16.7909 20.675 16.8691 20.7693C16.9473 20.8636 16.9929 20.9806 16.9991 21.1029C16.9991 21.4219 17.0884 21.7408 17.133 22.0598H18.1793C18.2239 21.7536 18.2686 21.4219 18.3069 21.1348C18.3113 21.0002 18.3609 20.871 18.4476 20.768C18.5344 20.665 18.6534 20.5942 18.7853 20.567C19.13 20.4591 19.465 20.3226 19.7869 20.1588C19.8839 20.0966 19.9983 20.0674 20.1133 20.0755C20.2282 20.0835 20.3374 20.1284 20.4248 20.2034C20.68 20.4076 20.9415 20.5989 21.2031 20.7839C21.4391 20.5351 21.6688 20.28 21.9304 20.012C21.7581 19.7951 21.5667 19.5208 21.3626 19.2593C21.2885 19.1714 21.2442 19.0622 21.2362 18.9476C21.2282 18.8329 21.2568 18.7187 21.3179 18.6213C21.4789 18.2848 21.6216 17.9398 21.7454 17.5879C21.7671 17.4722 21.8276 17.3675 21.9169 17.2909C22.0062 17.2144 22.119 17.1706 22.2366 17.1668C22.4981 17.1668 22.7469 17.0711 23.0021 17.0647C23.2573 17.0584 23.2509 16.9818 23.2509 16.7904C23.2509 15.9675 23.2509 15.9547 22.4662 15.8654C22.0452 15.8208 21.7836 15.6868 21.6879 15.2275C21.6156 14.9382 21.4971 14.6625 21.3371 14.4109C21.2566 14.2987 21.2182 14.1618 21.2287 14.0241C21.2392 13.8864 21.2979 13.7568 21.3945 13.6581C21.5986 13.4285 21.7709 13.1669 21.9559 12.9181C21.7007 12.6757 21.4519 12.4524 21.1903 12.1973C20.9607 12.3695 20.6864 12.5545 20.4376 12.7586C20.3492 12.8432 20.2346 12.895 20.1128 12.9055C19.9909 12.9159 19.8692 12.8844 19.7677 12.8161C19.4301 12.6544 19.0828 12.5138 18.7279 12.395C18.613 12.3661 18.51 12.302 18.4333 12.2116C18.3567 12.1212 18.3102 12.0091 18.3005 11.891C18.2494 11.5721 18.2048 11.2531 18.1601 10.915H17.1139L16.9799 11.8719C16.97 11.995 16.9215 12.1118 16.8413 12.2057C16.7611 12.2996 16.6534 12.3659 16.5334 12.395C16.1859 12.5006 15.8503 12.6417 15.5318 12.8161C15.4214 12.8778 15.2951 12.9053 15.169 12.895C15.0429 12.8848 14.9227 12.8373 14.8237 12.7586C14.5749 12.5545 14.3261 12.3695 14.0709 12.1909C13.8349 12.4397 13.5925 12.6885 13.3437 12.9628C13.5031 13.1669 13.6882 13.4412 13.8923 13.69C13.9759 13.7811 14.0279 13.8967 14.0406 14.0197C14.0532 14.1427 14.0258 14.2665 13.9625 14.3726C13.8025 14.6985 13.6661 15.0353 13.5542 15.3806C13.5239 15.4954 13.4595 15.5983 13.3695 15.6757C13.2796 15.7532 13.1682 15.8015 13.0502 15.8144C12.7185 15.8463 12.4123 15.9037 12.0487 15.9611C12.0487 16.2673 12.0487 16.5544 12.0487 16.8351C12.0637 16.8788 12.0889 16.9184 12.1222 16.9505C12.1554 16.9827 12.1958 17.0065 12.24 17.0201C12.536 17.0524 12.8299 17.1014 13.1204 17.1668C13.3028 17.2202 13.4579 17.3411 13.5542 17.5049Z" fill="#FFFCF5"/>
<path d="M31.021 15.4316H28.3097" stroke="#FFFCF5" stroke-width="2" stroke-linecap="round" stroke-linejoin="round"/>
<path d="M29.0239 10.9727L27.6396 11.5596" stroke="#FFFCF5" stroke-width="2" stroke-linecap="round" stroke-linejoin="round"/>
<path d="M27.2637 5.84961L25.184 7.98033" stroke="#FFFCF5" stroke-width="2" stroke-linecap="round" stroke-linejoin="round"/>
<path d="M22.0576 4.40039L21.4898 5.69541" stroke="#FFFCF5" stroke-width="2" stroke-linecap="round" stroke-linejoin="round"/>
<path d="M17.6816 1.90039V5.05182" stroke="#FFFCF5" stroke-width="2" stroke-linecap="round" stroke-linejoin="round"/>
<path d="M12.9036 4.18359L13.4458 5.51689" stroke="#FFFCF5" stroke-width="2" stroke-linecap="round" stroke-linejoin="round"/>
<path d="M6.60687 11.125L7.89551 11.6609" stroke="#FFFCF5" stroke-width="2" stroke-linecap="round" stroke-linejoin="round"/>
</svg>
